<svg width="1440" height="877" viewBox="0 0 1440 877" fill="none" xmlns="http://www.w3.org/2000/svg">
<path d="M-149.569 0H1626.78V877H-149.569V0Z" fill="#FEBCBC"/>
<path d="M326.182 91.6628C412.039 74.139 495.172 42.7294 580.792 23.679C702.753 -3.47552 829.762 -5.11583 951.531 23.0456C1069.87 50.3463 1192.57 116.933 1309.5 150.763C1413.19 180.776 1526.4 193.135 1626.78 155.635L1626.78 0H-149.569V44.4184C2.10977 107.52 166.641 123.859 326.182 91.6628Z" fill="white"/>
<path d="M1258.33 756.056C1143.97 779.178 1033.24 820.621 919.199 845.757C756.754 881.586 587.585 883.75 425.395 846.593C267.78 810.571 104.349 722.713 -51.3929 678.077C-189.508 638.477 -340.301 622.169 -474 671.648L-474 877L1892 877V818.392C1689.97 735.133 1470.83 713.575 1258.33 756.056Z" fill="white"/>
</svg>
