<svg width="1440" height="414" viewBox="0 0 1440 414" fill="none" xmlns="http://www.w3.org/2000/svg">
<path d="M-149.569 0H1626.78V414H-149.569V0Z" fill="#FEBCBC"/>
<path d="M326.182 43.2707C412.039 34.9983 495.172 20.171 580.792 11.178C702.753 -1.64067 829.762 -2.415 951.531 10.879C1069.87 23.7667 1192.57 55.2 1309.5 71.1697C1413.19 85.3377 1526.4 91.172 1626.78 73.4697L1626.78 0H-149.569V20.9683C2.10977 50.7565 166.641 58.4694 326.182 43.2707Z" fill="white"/>
<path d="M1258.33 356.907C1143.97 367.822 1033.24 387.386 919.199 399.251C756.754 416.165 587.585 417.186 425.395 399.646C267.78 382.641 104.349 341.167 -51.3929 320.096C-189.508 301.402 -340.301 293.704 -474 317.061L-474 414L1892 414V386.333C1689.97 347.03 1470.83 336.853 1258.33 356.907Z" fill="white"/>
</svg>
