<svg width="1440" height="650" viewBox="0 0 1440 650" fill="none" xmlns="http://www.w3.org/2000/svg">
<path d="M-149.569 0H1626.78V650H-149.569V0Z" fill="#FEBCBC"/>
<path d="M326.182 67.937C412.039 54.9491 495.172 31.6694 580.792 17.55C702.753 -2.57593 829.762 -3.79167 951.531 17.0806C1069.87 37.3148 1192.57 86.6667 1309.5 111.74C1413.19 133.984 1526.4 143.144 1626.78 115.351L1626.78 0H-149.569V32.9213C2.10977 79.6902 166.641 91.7998 326.182 67.937Z" fill="white"/>
<path d="M1258.33 560.361C1143.97 577.498 1033.24 608.214 919.199 626.844C756.754 653.399 587.585 655.003 425.395 627.463C267.78 600.765 104.349 535.648 -51.3929 502.566C-189.508 473.215 -340.301 461.129 -474 497.801L-474 650L1892 650V606.562C1689.97 544.853 1470.83 528.875 1258.33 560.361Z" fill="white"/>
</svg>
